<?xml version="1.0" encoding="UTF-8" standalone="no"?>
<!-- Created with Inkscape (http://www.inkscape.org/) -->

<svg
   version="1.1"
   id="svg2"
   xml:space="preserve"
   width="1440"
   height="610.94397"
   viewBox="0 0 1440 610.94397"
   sodipodi:docname="MESS_05_Imagotipo.ai"
   xmlns:inkscape="http://www.inkscape.org/namespaces/inkscape"
   xmlns:sodipodi="http://sodipodi.sourceforge.net/DTD/sodipodi-0.dtd"
   xmlns="http://www.w3.org/2000/svg"
   xmlns:svg="http://www.w3.org/2000/svg"><defs
     id="defs6"><clipPath
       clipPathUnits="userSpaceOnUse"
       id="clipPath16"><path
         d="M 0,458.208 H 1080 V 0 H 0 Z"
         id="path14" /></clipPath></defs><sodipodi:namedview
     id="namedview4"
     pagecolor="#ffffff"
     bordercolor="#666666"
     borderopacity="1.0"
     inkscape:pageshadow="2"
     inkscape:pageopacity="0.0"
     inkscape:pagecheckerboard="0" /><g
     id="g8"
     inkscape:groupmode="layer"
     inkscape:label="MESS_05_Imagotipo"
     transform="matrix(1.3333333,0,0,-1.3333333,0,610.944)"><g
       id="g10"><g
         id="g12"
         clip-path="url(#clipPath16)"><g
           id="g18"
           transform="translate(616.3564,157.6323)"><path
             d="m 0,0 h -46.778 v 67.967 c 0,11.27 -1.212,19.032 -3.564,23.219 -3.533,6.148 -8.772,9.225 -15.781,9.225 -7.78,0 -13.749,-3.356 -17.907,-10.066 -2.951,-4.747 -4.421,-12.276 -4.421,-22.378 V 0 h -46.763 v 67.967 c 0,11.27 -0.938,18.728 -2.848,22.095 -3.802,6.839 -9.633,10.208 -17.499,10.208 -7.28,0 -12.997,-2.936 -17.055,-8.803 -1.531,-2.093 -2.641,-4.906 -3.241,-8.541 -0.677,-3.695 -1.035,-8.749 -1.035,-14.959 V 0 h -46.744 v 136.961 h 46.744 v -18.518 c 5.53,5.31 10.559,9.216 15.105,11.716 8.279,4.468 17.467,6.66 27.629,6.66 13.007,0 23.84,-3.411 32.467,-10.129 4.381,-3.37 8.547,-8.247 12.535,-14.518 3.609,5.964 7.647,10.585 12.114,13.956 9.396,7.246 20.09,10.833 32.184,10.833 9.849,0 18.631,-2.334 26.331,-7.084 8.243,-5.28 13.675,-12.289 16.225,-21.22 C -0.788,103.22 0,96.504 0,88.515 Z"
             style="fill:#004580;fill-opacity:1;fill-rule:nonzero;stroke:none"
             id="path20" /></g><g
           id="g22"
           transform="translate(723.8984,244.2304)"><path
             d="m 0,0 c -3.211,14.47 -11.792,21.709 -25.718,21.709 -7.686,0 -13.925,-2.248 -18.682,-6.845 C -48.158,11.133 -50.526,6.246 -51.517,0 Z m 42.443,-25.879 h -95.205 c 0,-19.224 9.22,-28.728 27.711,-28.728 9.461,0 16.697,3.938 21.736,12.021 h 43.948 c -3.498,-11.46 -8.637,-20.383 -15.458,-26.764 -12.373,-11.551 -28.91,-17.248 -49.643,-17.248 -26.335,0 -46.136,8.057 -59.436,23.97 -9.923,11.972 -14.915,26.686 -14.915,43.937 0,20.356 6.24,37.039 18.655,49.843 12.456,12.807 30.036,19.211 52.639,19.211 27.933,0 47.891,-10.159 59.858,-30.477 6.735,-11.422 10.11,-24.763 10.11,-39.926 z"
             style="fill:#004580;fill-opacity:1;fill-rule:nonzero;stroke:none"
             id="path24" /></g><g
           id="g26"
           transform="translate(872.3838,205.5073)"><path
             d="m 0,0 c 0,-13.623 -4.888,-24.74 -14.542,-33.369 -10.943,-9.656 -26.341,-14.505 -46.124,-14.505 -17.525,0 -34.509,4.974 -50.989,14.743 l 16.329,31.791 c 12.91,-8.387 24.91,-12.573 35.968,-12.573 9.389,0 14.106,3.319 14.106,9.751 0,3.354 -1.66,6.092 -4.903,7.807 -2.156,1.33 -6.896,2.736 -14.303,4.398 -8.325,1.716 -13.751,3.117 -16.305,4.202 -9.163,3.603 -15.315,9.174 -18.541,16.713 -1.721,4.16 -2.603,9.052 -2.603,14.874 0,11.144 3.794,20.89 11.412,29.235 9.789,10.71 24.939,16.019 45.387,16.019 14.202,0 28.043,-2.755 41.451,-8.222 L -18.949,51.657 c -8.41,4.437 -16.456,6.658 -24.171,6.658 -9.005,0 -13.539,-3.186 -13.539,-9.454 0,-2.807 1.822,-5.16 5.462,-6.954 1.661,-0.832 6.506,-1.979 14.575,-3.643 11.808,-2.496 20.471,-6.511 26.048,-11.831 C -3.584,19.521 0,10.842 0,0"
             style="fill:#004580;fill-opacity:1;fill-rule:nonzero;stroke:none"
             id="path28" /></g><g
           id="g30"
           transform="translate(981.8311,205.5073)"><path
             d="m 0,0 c 0,-13.623 -4.767,-24.74 -14.502,-33.369 -10.874,-9.656 -26.397,-14.505 -46.171,-14.505 -17.529,0 -34.515,4.974 -50.971,14.743 l 16.407,31.791 c 12.839,-8.387 24.807,-12.573 35.922,-12.573 9.452,0 14.177,3.319 14.177,9.751 0,3.354 -1.662,6.092 -4.987,7.807 -2.194,1.33 -6.933,2.736 -14.227,4.398 -8.335,1.716 -13.867,3.117 -16.388,4.202 -9.174,3.603 -15.315,9.174 -18.532,16.713 -1.767,4.16 -2.618,9.052 -2.618,14.874 0,11.144 3.861,20.89 11.414,29.235 9.765,10.71 25.02,16.019 45.377,16.019 14.201,0 28.084,-2.755 41.454,-8.222 L -18.941,51.657 c -8.367,4.437 -16.429,6.658 -24.192,6.658 -8.948,0 -13.422,-3.186 -13.422,-9.454 0,-2.807 1.72,-5.16 5.347,-6.954 1.664,-0.832 6.629,-1.979 14.696,-3.643 11.72,-2.496 20.369,-6.511 25.938,-11.831 C -3.594,19.521 0,10.842 0,0"
             style="fill:#004580;fill-opacity:1;fill-rule:nonzero;stroke:none"
             id="path32" /></g><g
           id="g34"
           transform="translate(573.2031,121.4355)"><path
             d="M 0,0 C 0,1.457 -0.455,2.695 -1.365,3.714 -2.274,4.733 -3.376,5.243 -4.666,5.243 -6.104,5.243 -7.285,4.629 -8.21,3.403 -8.958,2.41 -9.332,1.275 -9.332,0 c 0,-1.276 0.374,-2.411 1.122,-3.404 0.91,-1.226 2.091,-1.839 3.544,-1.839 1.306,0 2.41,0.506 3.312,1.515 C -0.451,-2.717 0,-1.475 0,0 m 7.055,-11.583 h -7.277 v 2.571 c -0.691,-0.983 -1.391,-1.698 -2.097,-2.147 -1.238,-0.782 -2.644,-1.174 -4.218,-1.174 -2.548,0 -4.815,0.99 -6.803,2.968 -2.37,2.361 -3.556,5.487 -3.556,9.377 0,3.957 1.215,7.116 3.645,9.477 1.929,1.879 4.145,2.818 6.647,2.818 1.458,0 2.827,-0.341 4.108,-1.023 0.736,-0.4 1.494,-1.057 2.274,-1.972 v 2.271 h 7.277 z"
             style="fill:#727272;fill-opacity:1;fill-rule:nonzero;stroke:none"
             id="path36" /></g><path
           d="m 592.531,109.852 h -7.275 v 37.496 h 7.275 z"
           style="fill:#727272;fill-opacity:1;fill-rule:nonzero;stroke:none"
           id="path38" /><path
           d="m 604.784,109.852 h -7.275 v 37.496 h 7.275 z"
           style="fill:#727272;fill-opacity:1;fill-rule:nonzero;stroke:none"
           id="path40" /><g
           id="g42"
           transform="translate(638.4209,121.4355)"><path
             d="M 0,0 C 0,1.457 -0.455,2.695 -1.365,3.714 -2.274,4.733 -3.376,5.243 -4.666,5.243 -6.104,5.243 -7.285,4.629 -8.21,3.403 -8.958,2.41 -9.332,1.275 -9.332,0 c 0,-1.276 0.374,-2.411 1.122,-3.404 0.91,-1.226 2.091,-1.839 3.544,-1.839 1.306,0 2.41,0.506 3.312,1.515 C -0.452,-2.717 0,-1.475 0,0 m 7.054,-11.583 h -7.276 v 2.571 c -0.692,-0.983 -1.391,-1.698 -2.097,-2.147 -1.238,-0.782 -2.644,-1.174 -4.218,-1.174 -2.548,0 -4.816,0.99 -6.803,2.968 -2.37,2.361 -3.556,5.487 -3.556,9.377 0,3.957 1.215,7.116 3.645,9.477 1.929,1.879 4.145,2.818 6.647,2.818 1.458,0 2.827,-0.341 4.108,-1.023 0.736,-0.4 1.494,-1.057 2.274,-1.972 v 2.271 h 7.276 z"
             style="fill:#727272;fill-opacity:1;fill-rule:nonzero;stroke:none"
             id="path44" /></g><g
           id="g46"
           transform="translate(666.8604,121.4228)"><path
             d="M 0,0 C 0,1.285 -0.374,2.428 -1.123,3.428 -2.048,4.663 -3.229,5.28 -4.666,5.28 -5.958,5.28 -7.058,4.767 -7.968,3.741 -8.878,2.715 -9.332,1.468 -9.332,0 c 0,-1.468 0.454,-2.715 1.364,-3.741 0.91,-1.026 2.01,-1.539 3.302,-1.539 1.452,0 2.634,0.617 3.543,1.852 C -0.374,-2.411 0,-1.268 0,0 m 7.562,0.025 c 0,-3.891 -1.184,-7.016 -3.554,-9.377 -1.988,-1.979 -4.256,-2.968 -6.803,-2.968 -1.575,0 -2.981,0.391 -4.218,1.174 -0.751,0.465 -1.451,1.181 -2.098,2.146 v -2.571 h -7.276 v 37.496 h 7.276 V 9.299 c 0.78,0.915 1.539,1.573 2.275,1.972 1.28,0.699 2.649,1.049 4.107,1.049 2.503,0 4.719,-0.94 6.648,-2.819 2.429,-2.36 3.643,-5.52 3.643,-9.476"
             style="fill:#727272;fill-opacity:1;fill-rule:nonzero;stroke:none"
             id="path48" /></g><g
           id="g50"
           transform="translate(694.9238,121.4355)"><path
             d="M 0,0 C 0,1.504 -0.466,2.78 -1.398,3.824 -2.33,4.87 -3.456,5.392 -4.776,5.392 -6.273,5.392 -7.491,4.756 -8.431,3.486 -9.193,2.466 -9.575,1.304 -9.575,0 c 0,-1.321 0.382,-2.492 1.144,-3.511 0.94,-1.271 2.158,-1.906 3.655,-1.906 1.335,0 2.464,0.522 3.389,1.566 C -0.463,-2.805 0,-1.522 0,0 m 7.562,0 c 0,-3.212 -0.936,-5.966 -2.808,-8.264 -2.27,-2.795 -5.447,-4.193 -9.53,-4.193 -4.099,0 -7.284,1.398 -9.554,4.193 -1.872,2.298 -2.809,5.118 -2.809,8.464 0,3.011 0.944,5.683 2.831,8.013 2.286,2.812 5.537,4.219 9.752,4.219 3.877,0 6.974,-1.407 9.288,-4.219 C 6.619,5.917 7.562,3.179 7.562,0"
             style="fill:#727272;fill-opacity:1;fill-rule:nonzero;stroke:none"
             id="path52" /></g><g
           id="g54"
           transform="translate(728.5381,118.3144)"><path
             d="m 0,0 c 0,-4.31 -1.807,-7.173 -5.418,-8.587 -1.504,-0.582 -3.339,-0.874 -5.506,-0.874 -4.261,0 -7.32,1.181 -9.178,3.544 -1.179,1.499 -1.768,3.471 -1.768,5.917 v 14.704 h 7.274 V 1.573 c 0,-1.448 0.308,-2.513 0.924,-3.195 0.659,-0.733 1.575,-1.099 2.748,-1.099 1.157,0 2.066,0.366 2.725,1.099 0.616,0.682 0.924,1.747 0.924,3.195 V 14.704 H 0 Z"
             style="fill:#727272;fill-opacity:1;fill-rule:nonzero;stroke:none"
             id="path56" /></g><g
           id="g58"
           transform="translate(745.7656,126.3032)"><path
             d="m 0,0 h -4.136 v -16.451 h -7.275 V 0 h -2.388 v 6.715 h 2.388 v 6.966 h 7.275 V 6.715 l 4.136,0 z"
             style="fill:#727272;fill-opacity:1;fill-rule:nonzero;stroke:none"
             id="path60" /></g><g
           id="g62"
           transform="translate(795.8555,109.852)"><path
             d="m 0,0 h -7.275 v 11.441 c 0,1.995 -0.185,3.357 -0.553,4.089 -0.546,1.08 -1.363,1.62 -2.455,1.62 -1.208,0 -2.137,-0.59 -2.786,-1.769 -0.457,-0.832 -0.686,-2.145 -0.686,-3.94 V 0 h -7.275 v 11.441 c 0,1.995 -0.148,3.291 -0.443,3.89 -0.589,1.196 -1.496,1.794 -2.719,1.794 -1.135,0 -2.02,-0.515 -2.654,-1.545 -0.236,-0.366 -0.406,-0.869 -0.508,-1.509 -0.104,-0.639 -0.156,-1.516 -0.156,-2.63 V 0 h -7.274 v 23.167 h 7.274 v -2.846 c 0.857,0.932 1.639,1.614 2.349,2.047 1.284,0.782 2.717,1.173 4.297,1.173 2.022,0 3.706,-0.591 5.05,-1.772 0.679,-0.6 1.329,-1.448 1.949,-2.547 0.561,1.032 1.188,1.848 1.883,2.447 1.461,1.265 3.129,1.897 5.005,1.897 1.536,0 2.902,-0.416 4.098,-1.248 1.284,-0.916 2.126,-2.155 2.525,-3.72 C -0.118,17.65 0,16.468 0,15.053 Z"
             style="fill:#727272;fill-opacity:1;fill-rule:nonzero;stroke:none"
             id="path64" /></g><g
           id="g66"
           transform="translate(815.8027,124.5805)"><path
             d="M 0,0 C -0.513,2.613 -1.884,3.919 -4.113,3.919 -5.345,3.919 -6.342,3.504 -7.104,2.673 -7.706,2.01 -8.087,1.12 -8.248,0 Z M 6.789,-4.668 H -8.447 c 0,-3.478 1.48,-5.217 4.442,-5.217 1.51,0 2.668,0.731 3.475,2.197 h 7.032 c -0.561,-2.091 -1.386,-3.709 -2.477,-4.854 -1.975,-2.073 -4.622,-3.11 -7.939,-3.11 -4.217,0 -7.386,1.448 -9.509,4.343 -1.592,2.163 -2.388,4.802 -2.388,7.914 0,3.695 0.995,6.699 2.986,9.012 1.99,2.313 4.798,3.47 8.425,3.47 4.466,0 7.659,-1.834 9.575,-5.502 1.076,-2.067 1.614,-4.468 1.614,-7.203 z"
             style="fill:#727272;fill-opacity:1;fill-rule:nonzero;stroke:none"
             id="path68" /></g><g
           id="g70"
           transform="translate(839.0244,126.3032)"><path
             d="m 0,0 h -4.136 v -16.451 h -7.275 V 0 H -13.8 v 6.715 h 2.389 v 6.966 h 7.275 V 6.715 l 4.136,0 z"
             style="fill:#727272;fill-opacity:1;fill-rule:nonzero;stroke:none"
             id="path72" /></g><g
           id="g74"
           transform="translate(857.1367,125.4794)"><path
             d="m 0,0 c -1.015,0.549 -2.044,0.824 -3.088,0.824 -2.382,0 -3.926,-1.107 -4.631,-3.32 -0.264,-0.799 -0.397,-1.873 -0.397,-3.221 v -9.91 h -7.276 V 7.539 h 7.276 V 3.745 c 0.764,1.348 1.588,2.321 2.47,2.921 1.191,0.798 2.602,1.198 4.234,1.198 0.383,0 0.852,-0.025 1.412,-0.074 z"
             style="fill:#727272;fill-opacity:1;fill-rule:nonzero;stroke:none"
             id="path76" /></g><g
           id="g78"
           transform="translate(876.7305,121.4355)"><path
             d="M 0,0 C 0,1.504 -0.466,2.78 -1.398,3.824 -2.33,4.87 -3.456,5.392 -4.776,5.392 -6.273,5.392 -7.492,4.756 -8.431,3.486 -9.194,2.466 -9.575,1.304 -9.575,0 c 0,-1.321 0.381,-2.492 1.144,-3.511 0.939,-1.271 2.158,-1.906 3.655,-1.906 1.335,0 2.464,0.522 3.389,1.566 C -0.463,-2.805 0,-1.522 0,0 m 7.562,0 c 0,-3.212 -0.936,-5.966 -2.808,-8.264 -2.271,-2.795 -5.447,-4.193 -9.53,-4.193 -4.1,0 -7.284,1.398 -9.554,4.193 -1.872,2.298 -2.809,5.118 -2.809,8.464 0,3.011 0.944,5.683 2.831,8.013 2.285,2.812 5.536,4.219 9.752,4.219 3.877,0 6.974,-1.407 9.288,-4.219 C 6.619,5.917 7.562,3.179 7.562,0"
             style="fill:#727272;fill-opacity:1;fill-rule:nonzero;stroke:none"
             id="path80" /></g><path
           d="m 895.749,109.852 h -7.275 v 37.496 h 7.275 z"
           style="fill:#727272;fill-opacity:1;fill-rule:nonzero;stroke:none"
           id="path82" /><g
           id="g84"
           transform="translate(917.0459,121.4355)"><path
             d="M 0,0 C 0,1.504 -0.466,2.78 -1.398,3.824 -2.33,4.87 -3.456,5.392 -4.776,5.392 -6.273,5.392 -7.492,4.756 -8.431,3.486 -9.194,2.466 -9.575,1.304 -9.575,0 c 0,-1.321 0.381,-2.492 1.144,-3.511 0.939,-1.271 2.158,-1.906 3.655,-1.906 1.335,0 2.464,0.522 3.389,1.566 C -0.463,-2.805 0,-1.522 0,0 m 7.562,0 c 0,-3.212 -0.936,-5.966 -2.808,-8.264 -2.271,-2.795 -5.447,-4.193 -9.53,-4.193 -4.1,0 -7.284,1.398 -9.554,4.193 -1.872,2.298 -2.809,5.118 -2.809,8.464 0,3.011 0.944,5.683 2.831,8.013 2.285,2.812 5.536,4.219 9.752,4.219 3.877,0 6.974,-1.407 9.288,-4.219 C 6.619,5.917 7.562,3.179 7.562,0"
             style="fill:#727272;fill-opacity:1;fill-rule:nonzero;stroke:none"
             id="path86" /></g><g
           id="g88"
           transform="translate(944.8437,121.5102)"><path
             d="M 0,0 C 0,1.481 -0.447,2.754 -1.343,3.819 -2.237,4.884 -3.338,5.417 -4.644,5.417 -6.097,5.417 -7.285,4.785 -8.209,3.52 -8.943,2.504 -9.31,1.331 -9.31,0 c 0,-1.481 0.451,-2.75 1.354,-3.807 0.902,-1.057 2.006,-1.585 3.312,-1.585 1.29,0 2.388,0.528 3.29,1.585 C -0.451,-2.75 0,-1.481 0,0 m 6.922,-10.061 c 0,-2.03 -0.126,-3.669 -0.376,-4.918 -0.398,-1.997 -1.43,-3.786 -3.096,-5.367 -2.108,-1.997 -4.909,-2.995 -8.403,-2.995 -3.656,0 -6.568,1.09 -8.735,3.27 -1.446,1.447 -2.367,2.963 -2.764,4.543 -0.045,0.167 -0.104,0.516 -0.178,1.049 h 8.138 c 0.236,-0.758 0.554,-1.301 0.951,-1.631 0.648,-0.544 1.475,-0.816 2.478,-0.816 1.68,0 2.969,0.672 3.869,2.016 0.56,0.847 0.84,2.057 0.84,3.633 v 2.19 c -0.869,-0.899 -1.597,-1.531 -2.186,-1.897 -1.222,-0.766 -2.665,-1.149 -4.328,-1.149 -2.092,0 -3.961,0.608 -5.61,1.823 -1.693,1.248 -2.908,2.954 -3.644,5.118 -0.501,1.464 -0.751,3.053 -0.751,4.767 0,3.795 1.067,6.883 3.203,9.262 1.987,2.213 4.38,3.321 7.177,3.321 1.486,0 2.812,-0.342 3.974,-1.024 0.693,-0.416 1.415,-1.098 2.165,-2.047 v 2.421 h 7.276 z"
             style="fill:#727272;fill-opacity:1;fill-rule:nonzero;stroke:none"
             id="path90" /></g><g
           id="g92"
           transform="translate(981.8418,133.0185)"><path
             d="m 0,0 -16.476,-34.75 h -8.137 l 6.966,14.754 L -27.555,0 h 8.426 L -13.645,-11.883 -8.315,0 Z"
             style="fill:#727272;fill-opacity:1;fill-rule:nonzero;stroke:none"
             id="path94" /></g><g
           id="g96"
           transform="translate(418.9844,343.7397)"><path
             d="m 0,0 c 0,1.986 -0.697,3.692 -2.09,5.121 -1.393,1.427 -3.106,2.142 -5.139,2.142 -2.26,0 -4.111,-0.849 -5.549,-2.544 C -13.92,3.357 -14.491,1.785 -14.491,0 c 0,-1.986 0.701,-3.687 2.106,-5.104 1.405,-1.417 3.124,-2.125 5.156,-2.125 2.01,0 3.717,0.708 5.122,2.125 C -0.703,-3.687 0,-1.986 0,0 m 10.773,-13.488 c 0,-2.722 -0.195,-4.92 -0.585,-6.593 -0.619,-2.677 -2.225,-5.076 -4.818,-7.196 -3.282,-2.678 -7.642,-4.016 -13.08,-4.016 -5.691,0 -10.224,1.461 -13.597,4.384 -2.249,1.942 -3.683,3.972 -4.302,6.092 -0.069,0.223 -0.162,0.692 -0.276,1.405 h 12.667 c 0.367,-1.016 0.861,-1.745 1.48,-2.186 1.009,-0.729 2.295,-1.093 3.855,-1.093 2.616,0 4.624,0.9 6.025,2.702 0.871,1.135 1.307,2.116 1.307,4.229 v 2.936 c -1.352,-1.205 -2.487,-2.053 -3.403,-2.544 -1.902,-1.026 -4.148,-1.54 -6.737,-1.54 -3.255,0 -6.165,0.815 -8.732,2.444 -2.635,1.673 -4.526,3.961 -5.672,6.861 -0.779,1.963 -1.169,4.735 -1.169,7.034 0,5.087 1.662,9.226 4.986,12.417 3.093,2.967 6.817,4.451 11.171,4.451 2.315,0 4.377,-0.458 6.187,-1.372 1.077,-0.558 2.2,-1.473 3.369,-2.744 v 4.116 h 11.324 z"
             style="fill:#727272;fill-opacity:1;fill-rule:nonzero;stroke:none"
             id="path98" /></g><g
           id="g100"
           transform="translate(461.4253,349.496)"><path
             d="m 0,0 c -1.579,0.736 -3.182,1.104 -4.806,1.104 -3.707,0 -6.11,-1.483 -7.208,-4.451 -0.413,-1.07 -0.618,-2.51 -0.618,-4.317 V -22.18 h -11.325 v 32.723 h 11.325 V 5.021 c 1.189,1.807 2.471,3.112 3.845,3.916 1.852,1.071 4.05,1.606 6.59,1.606 0.594,0 1.327,-0.034 2.197,-0.1 z"
             style="fill:#727272;fill-opacity:1;fill-rule:nonzero;stroke:none"
             id="path102" /></g><g
           id="g104"
           transform="translate(500.4937,339.5165)"><path
             d="m 0,0 c 0,-5.779 -2.812,-9.617 -8.434,-11.513 -2.34,-0.78 -5.197,-1.172 -8.57,-1.172 -6.632,0 -11.394,1.584 -14.285,4.753 -1.836,2.008 -2.753,4.652 -2.753,7.932 v 20.522 h 11.324 V 2.109 c 0,-1.942 0.478,-3.37 1.437,-4.284 1.026,-0.982 2.452,-1.473 4.277,-1.473 1.802,0 3.215,0.491 4.242,1.473 0.958,0.914 1.437,2.342 1.437,4.284 V 20.522 H 0 Z"
             style="fill:#727272;fill-opacity:1;fill-rule:nonzero;stroke:none"
             id="path106" /></g><g
           id="g108"
           transform="translate(533.6748,343.3544)"><path
             d="m 0,0 c 0,1.767 -0.57,3.299 -1.712,4.596 -1.44,1.655 -3.289,2.483 -5.55,2.483 -2.033,0 -3.752,-0.683 -5.157,-2.047 -1.404,-1.365 -2.106,-3.041 -2.106,-5.032 0,-1.968 0.708,-3.64 2.124,-5.016 1.416,-1.375 3.129,-2.063 5.139,-2.063 2.261,0 4.099,0.828 5.515,2.483 C -0.582,-3.254 0,-1.723 0,0 m 11.772,0.135 c 0,-5.305 -1.89,-9.708 -5.672,-12.873 -3.001,-2.519 -6.451,-3.779 -10.346,-3.779 -2.27,0 -4.401,0.469 -6.395,1.406 -1.145,0.536 -2.326,1.417 -3.54,2.644 v -18.575 h -11.324 v 47.727 h 11.324 v -4.452 c 1.008,1.294 2.097,2.254 3.265,2.879 1.926,1.048 4.114,1.573 6.566,1.573 3.965,0 7.494,-1.327 10.588,-3.979 3.69,-3.165 5.534,-7.356 5.534,-12.571"
             style="fill:#727272;fill-opacity:1;fill-rule:nonzero;stroke:none"
             id="path110" /></g><g
           id="g112"
           transform="translate(577.2871,343.4521)"><path
             d="m 0,0 c 0,2.008 -0.726,3.708 -2.177,5.103 -1.45,1.394 -3.203,2.091 -5.259,2.091 -2.329,0 -4.225,-0.847 -5.687,-2.543 C -14.312,3.29 -14.904,1.74 -14.904,0 c 0,-1.762 0.592,-3.324 1.781,-4.684 1.462,-1.695 3.358,-2.544 5.687,-2.544 2.079,0 3.837,0.697 5.277,2.091 C -0.721,-3.743 0,-2.03 0,0 m 11.771,0 c 0,-4.286 -1.457,-7.96 -4.371,-11.024 -3.534,-3.73 -8.479,-5.596 -14.836,-5.596 -6.378,0 -11.335,1.866 -14.87,5.596 -2.914,3.064 -4.371,6.827 -4.371,11.291 0,4.018 1.468,7.582 4.406,10.691 3.556,3.752 8.617,5.628 15.179,5.628 6.035,0 10.855,-1.876 14.457,-5.628 C 10.303,7.894 11.771,4.241 11.771,0"
             style="fill:#727272;fill-opacity:1;fill-rule:nonzero;stroke:none"
             id="path114" /></g><g
           id="g116"
           transform="translate(965.4707,357.4848)"><path
             d="m 0,0 c -7.614,0 -13.809,-6.194 -13.809,-13.807 0,-7.614 6.195,-13.808 13.809,-13.808 7.612,0 13.807,6.194 13.807,13.808 C 13.807,-6.194 7.612,0 0,0 m 0,-30.169 c -9.022,0 -16.362,7.339 -16.362,16.362 0,9.022 7.34,16.361 16.362,16.361 9.021,0 16.36,-7.339 16.36,-16.361 0,-9.023 -7.339,-16.362 -16.36,-16.362"
             style="fill:#727272;fill-opacity:1;fill-rule:nonzero;stroke:none"
             id="path118" /></g><g
           id="g120"
           transform="translate(962.2832,349.8554)"><path
             d="m 0,0 h 2.897 c 1.44,0 2.283,-0.02 2.576,-0.062 0.608,-0.1 1.085,-0.347 1.42,-0.734 0.338,-0.389 0.508,-0.901 0.508,-1.521 0,-0.554 -0.129,-1.023 -0.38,-1.395 C 6.764,-4.087 6.405,-4.355 5.954,-4.508 5.515,-4.658 4.469,-4.731 2.756,-4.731 H 0 Z m 2.691,-7.373 c 0.39,-0.136 0.767,-0.393 1.118,-0.762 0.339,-0.362 0.949,-1.202 1.862,-2.571 l 2.483,-3.7 h 3.799 l -1.959,3.13 c -0.83,1.339 -1.496,2.278 -1.973,2.79 -0.482,0.516 -1.099,0.995 -1.836,1.425 l -0.409,0.238 0.468,0.068 c 1.475,0.213 2.596,0.734 3.332,1.549 0.731,0.812 1.103,1.86 1.103,3.113 0,0.989 -0.246,1.878 -0.731,2.643 C 9.467,1.312 8.814,1.849 8.014,2.146 7.197,2.449 5.857,2.603 4.031,2.603 H -3.173 V -14.406 H 0 v 7.238 h 0.875 c 0.83,0 1.425,-0.067 1.816,-0.205"
             style="fill:#727272;fill-opacity:1;fill-rule:nonzero;stroke:none"
             id="path122" /></g><g
           id="g124"
           transform="translate(98.1689,150.4292)"><path
             d="M 0,0 H 0.001 0 l 17.858,-19.45 7.094,8.094 -7.822,8.266 h 92.053 v 37.641 c 0,4.054 0.194,7.248 0.584,9.578 0.385,2.331 1.024,4.164 1.912,5.495 2.385,3.753 5.713,5.63 9.987,5.63 4.603,0 8.015,-2.177 10.233,-6.537 1.11,-2.18 1.664,-6.902 1.664,-14.166 V -3.09 h 27.376 v 37.641 c 0,6.537 0.861,11.319 2.58,14.348 2.44,4.298 5.934,6.446 10.485,6.446 4.103,0 7.183,-1.968 9.236,-5.902 1.385,-2.664 2.08,-7.628 2.08,-14.892 V -3.09 h 59.38 l -7.822,-8.266 7.094,-8.094 L 261.829,0 V -52.174 L 0,-52.174 Z"
             style="fill:#004580;fill-opacity:1;fill-rule:nonzero;stroke:none"
             id="path126" /></g><g
           id="g128"
           transform="translate(359.998,150.4292)"><path
             d="M 0,0 V 209.61 H -261.829 V 0 l 17.858,20.982 6.54,-8.093 -8.133,-9.091 h 65.542 v 74.921 h 27.376 V 66.896 c 3.162,3.333 6.054,5.777 8.683,7.357 0.176,0.103 0.35,0.189 0.526,0.288 0.901,0.515 1.826,0.969 2.766,1.386 0.367,0.162 0.732,0.323 1.092,0.466 1.073,0.426 2.163,0.811 3.285,1.114 0.064,0.017 0.133,0.042 0.196,0.059 2.682,0.705 5.5,1.152 8.456,1.152 7.61,0 13.945,-2.243 19.003,-6.548 2.556,-2.182 5.416,-5.274 7.749,-9.275 3.974,7.412 9.275,11.364 14.016,13.472 0.198,0.087 0.398,0.17 0.598,0.251 0.415,0.173 0.824,0.334 1.228,0.48 3.041,1.071 6.259,1.621 9.662,1.621 5.779,0 10.918,-1.517 15.418,-4.549 4.833,-3.333 8.002,-7.851 9.5,-13.548 0.89,-3.458 1.334,-7.763 1.334,-12.914 V 3.798 h 32.87 l -8.133,9.091 6.54,8.093 z"
             style="fill:#004580;fill-opacity:1;fill-rule:nonzero;stroke:none"
             id="path130" /></g></g></g></g></svg>
